<?xml version="1.0" encoding="UTF-8" standalone="no"?>
<!-- Uploaded to: SVG Repo, www.svgrepo.com, Transformed by: SVG Repo Mixer Tools -->

<svg
   xmlns:dc="http://purl.org/dc/elements/1.1/"
   xmlns:cc="http://creativecommons.org/ns#"
   xmlns:rdf="http://www.w3.org/1999/02/22-rdf-syntax-ns#"
   xmlns:svg="http://www.w3.org/2000/svg"
   xmlns="http://www.w3.org/2000/svg"
   xmlns:xlink="http://www.w3.org/1999/xlink"
   xmlns:sodipodi="http://sodipodi.sourceforge.net/DTD/sodipodi-0.dtd"
   xmlns:inkscape="http://www.inkscape.org/namespaces/inkscape"
   version="1.1"
   id="Capa_1"
   width="97.177597"
   height="74.666428"
   viewBox="-90.29 -90.29 131.60762 101.12074"
   xml:space="preserve"
   sodipodi:docname="cart-s.svg"
   inkscape:version="0.92.4 (5da689c313, 2019-01-14)"
   style="fill:#000000;stroke:#000000;stroke-width:0.0090286"><metadata
   id="metadata18"><rdf:RDF><cc:Work
       rdf:about=""><dc:format>image/svg+xml</dc:format><dc:type
         rdf:resource="http://purl.org/dc/dcmitype/StillImage" /><dc:title></dc:title></cc:Work></rdf:RDF></metadata><defs
   id="defs16"><linearGradient
     inkscape:collect="always"
     id="linearGradient4535"><stop
       style="stop-color:#000049;stop-opacity:1;"
       offset="0"
       id="stop4531" /><stop
       style="stop-color:#000049;stop-opacity:0;"
       offset="1"
       id="stop4533" /></linearGradient><linearGradient
     inkscape:collect="always"
     xlink:href="#linearGradient4535"
     id="linearGradient4537"
     x1="-0.58716884"
     y1="451.4305"
     x2="903.34734"
     y2="451.4305"
     gradientUnits="userSpaceOnUse" /></defs><sodipodi:namedview
   pagecolor="#ffffff"
   bordercolor="#666666"
   borderopacity="1"
   objecttolerance="10"
   gridtolerance="10"
   guidetolerance="10"
   inkscape:pageopacity="0"
   inkscape:pageshadow="2"
   inkscape:window-width="1920"
   inkscape:window-height="1017"
   id="namedview14"
   showgrid="false"
   inkscape:zoom="0.59"
   inkscape:cx="-878.52944"
   inkscape:cy="69.536968"
   inkscape:window-x="-8"
   inkscape:window-y="-8"
   inkscape:window-maximized="1"
   inkscape:current-layer="Capa_1" />

<g
   id="SVGRepo_bgCarrier"
   style="stroke-width:0"
   transform="translate(-838.59259,-167.50538)" />

<g
   id="SVGRepo_tracerCarrier"
   style="stroke:#cccccc;stroke-width:14.44575977;stroke-linecap:round;stroke-linejoin:round"
   transform="translate(-838.59259,-167.50538)" />

<g
   id="SVGRepo_iconCarrier"
   transform="matrix(0.14576586,0,0,0.13511048,-90.289207,-100.72262)"
   style="opacity:0.7;fill:#000080;stroke:#00001e;stroke-width:0.97468394;stroke-miterlimit:4;stroke-dasharray:none;stroke-opacity:1"> <g
   id="g10"
   style="fill:#000080;stroke:#00001e;stroke-width:0.97468394;stroke-miterlimit:4;stroke-dasharray:none;stroke-opacity:1"> <g
   id="g8"
   style="fill:#000080;stroke:#00001e;stroke-width:0.97468394;stroke-miterlimit:4;stroke-dasharray:none;stroke-opacity:1"> <path
   d="M 671.504,577.829 781.989,145.22 H 902.86 v -68 H 729.174 L 703.128,179.2 0,178.697 74.753,577.826 h 596.751 z m 14.262,-330.641 -67.077,262.64 H 131.199 L 81.928,246.756 Z"
   id="path4"
   inkscape:connector-curvature="0"
   style="fill:#000080;stroke:#00001e;stroke-width:0.97468394;stroke-miterlimit:4;stroke-dasharray:none;stroke-opacity:1" /> <path
   d="m 578.418,825.641 c 59.961,0 108.743,-48.783 108.743,-108.744 0,-59.961 -48.782,-108.742 -108.743,-108.742 H 168.717 c -59.961,0 -108.744,48.781 -108.744,108.742 0,59.961 48.782,108.744 108.744,108.744 59.962,0 108.743,-48.783 108.743,-108.744 0,-14.4 -2.821,-28.152 -7.927,-40.742 h 208.069 c -5.107,12.59 -7.928,26.342 -7.928,40.742 0.001,59.961 48.783,108.744 108.744,108.744 z M 209.46,716.897 c 0,22.467 -18.277,40.744 -40.743,40.744 -22.466,0 -40.744,-18.277 -40.744,-40.744 0,-22.465 18.277,-40.742 40.744,-40.742 22.466,0 40.743,18.277 40.743,40.742 z m 409.702,0 c 0,22.467 -18.277,40.744 -40.743,40.744 -22.466,0 -40.743,-18.277 -40.743,-40.744 0,-22.465 18.277,-40.742 40.743,-40.742 22.466,0 40.743,18.277 40.743,40.742 z"
   id="path6"
   inkscape:connector-curvature="0"
   style="fill:#000080;stroke:#00001e;stroke-width:0.97468394;stroke-miterlimit:4;stroke-dasharray:none;stroke-opacity:1" /> </g> </g> </g>

</svg>