<?xml version="1.0" encoding="UTF-8" standalone="no"?>
<!-- Uploaded to: SVG Repo, www.svgrepo.com, Transformed by: SVG Repo Mixer Tools -->

<svg
   xmlns:dc="http://purl.org/dc/elements/1.1/"
   xmlns:cc="http://creativecommons.org/ns#"
   xmlns:rdf="http://www.w3.org/1999/02/22-rdf-syntax-ns#"
   xmlns:svg="http://www.w3.org/2000/svg"
   xmlns="http://www.w3.org/2000/svg"
   xmlns:sodipodi="http://sodipodi.sourceforge.net/DTD/sodipodi-0.dtd"
   xmlns:inkscape="http://www.inkscape.org/namespaces/inkscape"
   fill="#000000"
   version="1.1"
   id="Capa_1"
   width="800px"
   height="800px"
   viewBox="-90.29 -90.29 1083.44 1083.44"
   xml:space="preserve"
   stroke="#000000"
   stroke-width="0.009028600000000001"
   sodipodi:docname="cart.svg"
   inkscape:version="0.92.4 (5da689c313, 2019-01-14)"><metadata
   id="metadata18"><rdf:RDF><cc:Work
       rdf:about=""><dc:format>image/svg+xml</dc:format><dc:type
         rdf:resource="http://purl.org/dc/dcmitype/StillImage" /></cc:Work></rdf:RDF></metadata><defs
   id="defs16" /><sodipodi:namedview
   pagecolor="#ffffff"
   bordercolor="#666666"
   borderopacity="1"
   objecttolerance="10"
   gridtolerance="10"
   guidetolerance="10"
   inkscape:pageopacity="0"
   inkscape:pageshadow="2"
   inkscape:window-width="1242"
   inkscape:window-height="646"
   id="namedview14"
   showgrid="false"
   inkscape:zoom="0.295"
   inkscape:cx="400"
   inkscape:cy="400"
   inkscape:window-x="0"
   inkscape:window-y="0"
   inkscape:window-maximized="0"
   inkscape:current-layer="Capa_1" />

<g
   id="SVGRepo_bgCarrier"
   stroke-width="0" />

<g
   id="SVGRepo_tracerCarrier"
   stroke-linecap="round"
   stroke-linejoin="round"
   stroke="#CCCCCC"
   stroke-width="14.445760000000002" />

<g
   id="SVGRepo_iconCarrier"
   style="stroke:#000080;fill:#000000"> <g
   id="g10"
   style="stroke:#000080;fill:#000000"> <g
   id="g8"
   style="stroke:#000080;fill:#000000"> <path
   d="M 671.504,577.829 781.989,145.22 H 902.86 v -68 H 729.174 L 703.128,179.2 0,178.697 74.753,577.826 h 596.751 z m 14.262,-330.641 -67.077,262.64 H 131.199 L 81.928,246.756 Z"
   id="path4"
   inkscape:connector-curvature="0"
   style="stroke:#000080;fill:#000000" /> <path
   d="m 578.418,825.641 c 59.961,0 108.743,-48.783 108.743,-108.744 0,-59.961 -48.782,-108.742 -108.743,-108.742 H 168.717 c -59.961,0 -108.744,48.781 -108.744,108.742 0,59.961 48.782,108.744 108.744,108.744 59.962,0 108.743,-48.783 108.743,-108.744 0,-14.4 -2.821,-28.152 -7.927,-40.742 h 208.069 c -5.107,12.59 -7.928,26.342 -7.928,40.742 0.001,59.961 48.783,108.744 108.744,108.744 z M 209.46,716.897 c 0,22.467 -18.277,40.744 -40.743,40.744 -22.466,0 -40.744,-18.277 -40.744,-40.744 0,-22.465 18.277,-40.742 40.744,-40.742 22.466,0 40.743,18.277 40.743,40.742 z m 409.702,0 c 0,22.467 -18.277,40.744 -40.743,40.744 -22.466,0 -40.743,-18.277 -40.743,-40.744 0,-22.465 18.277,-40.742 40.743,-40.742 22.466,0 40.743,18.277 40.743,40.742 z"
   id="path6"
   inkscape:connector-curvature="0"
   style="stroke:#000080;fill:#000000" /> </g> </g> </g>

</svg>